# xmcd CD database file
#
# Track frame offsets:
#	183
#	28970
#	53420
#	75993
#	98868
#	134868
#	158495
#	189093
#
# Disc length: 2813 seconds
#
# Revision: 0
# Processed by: cddbd v1.5.1PL0 Copyright (c) Steve Scherf et al.
# Submitted via: CDex 1.51
#
DISCID=590afb08
DTITLE=Abstract Truth - Beginnings
DYEAR=1994
DGENRE=Jazz
TTITLE0=alison
TTITLE1=die kleine mutti
TTITLE2=beginnings
TTITLE3=strange uhudler
TTITLE4=song for gil
TTITLE5=time out
TTITLE6=A-C Interspective
TTITLE7=Down Home
EXTD=YEAR: 1994
EXTT0=
EXTT1=
EXTT2=
EXTT3=
EXTT4=
EXTT5=
EXTT6=
EXTT7=
PLAYORDER=
